<svg id="svg" xmlns="http://www.w3.org/2000/svg" viewBox="-144 -144 288 288" fill="black"><g><circle cx="-132" cy="-132" r="8"></circle><circle cx="-132" cy="-110" r="8"></circle><circle cx="-132" cy="-88" r="8"></circle><circle cx="-132" cy="-66" r="8"></circle><circle cx="-132" cy="-44" r="8"></circle><circle cx="-132" cy="-22" r="8"></circle><circle cx="-132" cy="0" r="8"></circle><circle cx="-132" cy="22" r="8"></circle><circle cx="-132" cy="44" r="8"></circle><circle cx="-132" cy="66" r="8"></circle><circle cx="-132" cy="88" r="8"></circle><circle cx="-132" cy="110" r="8"></circle><circle cx="-132" cy="132" r="8"></circle></g><g><circle cx="-110" cy="-132" r="8"></circle><circle cx="-110" cy="-110" r="8"></circle><circle cx="-110" cy="-88" r="8"></circle><circle cx="-110" cy="-66" r="8"></circle><circle cx="-110" cy="-44" r="8"></circle><circle cx="-110" cy="-22" r="8"></circle><circle cx="-110" cy="0" r="8"></circle><circle cx="-110" cy="22" r="8"></circle><circle cx="-110" cy="44" r="8"></circle><circle cx="-110" cy="66" r="8"></circle><circle cx="-110" cy="88" r="8"></circle><circle cx="-110" cy="110" r="8"></circle><circle cx="-110" cy="132" r="8"></circle></g><g><circle cx="-88" cy="-132" r="8"></circle><circle cx="-88" cy="-110" r="8"></circle><circle cx="-88" cy="-88" r="8"></circle><circle cx="-88" cy="-66" r="8"></circle><circle cx="-88" cy="-44" r="8"></circle><circle cx="-88" cy="-22" r="8"></circle><circle cx="-88" cy="0" r="8"></circle><circle cx="-88" cy="22" r="8"></circle><circle cx="-88" cy="44" r="8"></circle><circle cx="-88" cy="66" r="8"></circle><circle cx="-88" cy="88" r="8"></circle><circle cx="-88" cy="110" r="8"></circle><circle cx="-88" cy="132" r="8"></circle></g><g><circle cx="-66" cy="-132" r="8"></circle><circle cx="-66" cy="-110" r="8"></circle><circle cx="-66" cy="-88" r="8"></circle><circle cx="-66" cy="-66" r="8"></circle><circle cx="-66" cy="-44" r="8"></circle><circle cx="-66" cy="-22" r="8"></circle><circle cx="-66" cy="0" r="8"></circle><circle cx="-66" cy="22" r="8"></circle><circle cx="-66" cy="44" r="8"></circle><circle cx="-66" cy="66" r="8"></circle><circle cx="-66" cy="88" r="8"></circle><circle cx="-66" cy="110" r="8"></circle><circle cx="-66" cy="132" r="8"></circle></g><g><circle cx="-44" cy="-132" r="8"></circle><circle cx="-44" cy="-110" r="8"></circle><circle cx="-44" cy="-88" r="8"></circle><circle cx="-44" cy="-66" r="8"></circle><circle cx="-44" cy="-44" r="8"></circle><circle cx="-44" cy="-22" r="8"></circle><circle cx="-44" cy="0" r="8"></circle><circle cx="-44" cy="22" r="8"></circle><circle cx="-44" cy="44" r="8"></circle><circle cx="-44" cy="66" r="8"></circle><circle cx="-44" cy="88" r="8"></circle><circle cx="-44" cy="110" r="8"></circle><circle cx="-44" cy="132" r="8"></circle></g><g><circle cx="-22" cy="-132" r="8"></circle><circle cx="-22" cy="-110" r="8"></circle><circle cx="-22" cy="-88" r="8"></circle><circle cx="-22" cy="-66" r="8"></circle><circle cx="-22" cy="-44" r="8"></circle><circle cx="-22" cy="-22" r="8"></circle><circle cx="-22" cy="0" r="8"></circle><circle cx="-22" cy="22" r="8"></circle><circle cx="-22" cy="44" r="8"></circle><circle cx="-22" cy="66" r="8"></circle><circle cx="-22" cy="88" r="8"></circle><circle cx="-22" cy="110" r="8"></circle><circle cx="-22" cy="132" r="8"></circle></g><g><circle cx="0" cy="-132" r="8"></circle><circle cx="0" cy="-110" r="8"></circle><circle cx="0" cy="-88" r="8"></circle><circle cx="0" cy="-66" r="8"></circle><circle cx="0" cy="-44" r="8"></circle><circle cx="0" cy="-22" r="8"></circle><circle cx="0" cy="0" r="8"></circle><circle cx="0" cy="22" r="8"></circle><circle cx="0" cy="44" r="8"></circle><circle cx="0" cy="66" r="8"></circle><circle cx="0" cy="88" r="8"></circle><circle cx="0" cy="110" r="8"></circle><circle cx="0" cy="132" r="8"></circle></g><g><circle cx="22" cy="-132" r="8"></circle><circle cx="22" cy="-110" r="8"></circle><circle cx="22" cy="-88" r="8"></circle><circle cx="22" cy="-66" r="8"></circle><circle cx="22" cy="-44" r="8"></circle><circle cx="22" cy="-22" r="8"></circle><circle cx="22" cy="0" r="8"></circle><circle cx="22" cy="22" r="8"></circle><circle cx="22" cy="44" r="8"></circle><circle cx="22" cy="66" r="8"></circle><circle cx="22" cy="88" r="8"></circle><circle cx="22" cy="110" r="8"></circle><circle cx="22" cy="132" r="8"></circle></g><g><circle cx="44" cy="-132" r="8"></circle><circle cx="44" cy="-110" r="8"></circle><circle cx="44" cy="-88" r="8"></circle><circle cx="44" cy="-66" r="8"></circle><circle cx="44" cy="-44" r="8"></circle><circle cx="44" cy="-22" r="8"></circle><circle cx="44" cy="0" r="8"></circle><circle cx="44" cy="22" r="8"></circle><circle cx="44" cy="44" r="8"></circle><circle cx="44" cy="66" r="8"></circle><circle cx="44" cy="88" r="8"></circle><circle cx="44" cy="110" r="8"></circle><circle cx="44" cy="132" r="8"></circle></g><g><circle cx="66" cy="-132" r="8"></circle><circle cx="66" cy="-110" r="8"></circle><circle cx="66" cy="-88" r="8"></circle><circle cx="66" cy="-66" r="8"></circle><circle cx="66" cy="-44" r="8"></circle><circle cx="66" cy="-22" r="8"></circle><circle cx="66" cy="0" r="8"></circle><circle cx="66" cy="22" r="8"></circle><circle cx="66" cy="44" r="8"></circle><circle cx="66" cy="66" r="8"></circle><circle cx="66" cy="88" r="8"></circle><circle cx="66" cy="110" r="8"></circle><circle cx="66" cy="132" r="8"></circle></g><g><circle cx="88" cy="-132" r="8"></circle><circle cx="88" cy="-110" r="8"></circle><circle cx="88" cy="-88" r="8"></circle><circle cx="88" cy="-66" r="8"></circle><circle cx="88" cy="-44" r="8"></circle><circle cx="88" cy="-22" r="8"></circle><circle cx="88" cy="0" r="8"></circle><circle cx="88" cy="22" r="8"></circle><circle cx="88" cy="44" r="8"></circle><circle cx="88" cy="66" r="8"></circle><circle cx="88" cy="88" r="8"></circle><circle cx="88" cy="110" r="8"></circle><circle cx="88" cy="132" r="8"></circle></g><g><circle cx="110" cy="-132" r="8"></circle><circle cx="110" cy="-110" r="8"></circle><circle cx="110" cy="-88" r="8"></circle><circle cx="110" cy="-66" r="8"></circle><circle cx="110" cy="-44" r="8"></circle><circle cx="110" cy="-22" r="8"></circle><circle cx="110" cy="0" r="8"></circle><circle cx="110" cy="22" r="8"></circle><circle cx="110" cy="44" r="8"></circle><circle cx="110" cy="66" r="8"></circle><circle cx="110" cy="88" r="8"></circle><circle cx="110" cy="110" r="8"></circle><circle cx="110" cy="132" r="8"></circle></g><g><circle cx="132" cy="-132" r="8"></circle><circle cx="132" cy="-110" r="8"></circle><circle cx="132" cy="-88" r="8"></circle><circle cx="132" cy="-66" r="8"></circle><circle cx="132" cy="-44" r="8"></circle><circle cx="132" cy="-22" r="8"></circle><circle cx="132" cy="0" r="8"></circle><circle cx="132" cy="22" r="8"></circle><circle cx="132" cy="44" r="8"></circle><circle cx="132" cy="66" r="8"></circle><circle cx="132" cy="88" r="8"></circle><circle cx="132" cy="110" r="8"></circle><circle cx="132" cy="132" r="8"></circle></g></svg>